<svg xmlns="http://www.w3.org/2000/svg" width="230" height="259" fill="none" viewBox="0 0 230 259"><path fill="url(#paint0_linear_535_6)" fill-rule="evenodd" d="M157.761 143.395C168.456 137.242 168.456 121.811 157.761 115.658L119.096 93.4121L158.969 74.8191L175.714 84.4534L217.898 108.723C233.94 117.953 233.94 141.099 217.898 150.329L175.747 174.58L175.714 174.599L157.643 184.996L117.77 166.403L157.761 143.395ZM36 167.994V185.783V185.79C36.0047 198.092 49.3142 205.788 59.979 199.652L79.6367 188.342L119.509 206.935L77.9318 230.856L77.8972 230.876L35.9685 254.999C19.9685 264.204 0 252.655 0 234.196L2.12361e-06 185.783L3.6403e-06 151.207L36 167.994ZM120.835 52.8797L80.9624 71.4726L59.979 59.4002L59.9739 59.3973C49.3081 53.2658 36 60.9646 36 73.2687V92.4389L5.48178e-06 109.226L7.05903e-06 73.2687L9.18264e-06 24.856C9.99235e-06 6.39696 19.9685 -5.15206 35.9685 4.05324L77.9318 28.196L120.835 52.8797Z" clip-rule="evenodd"/><defs><linearGradient id="paint0_linear_535_6" x1="0" x2="227.419" y1=".82" y2="260.405" gradientUnits="userSpaceOnUse"><stop stop-color="#50DEC4"/><stop offset="1" stop-color="#4AC8D9"/></linearGradient></defs></svg>