<?xml version="1.0" encoding="UTF-8" standalone="no"?>
<svg
   width="100%"
   height="100%"
   version="1.1"
   viewBox="0 0 512 512"
   xml:space="preserve"
   style="fill-rule:evenodd;clip-rule:evenodd;stroke-linejoin:round;stroke-miterlimit:2"
   id="svg17"
   sodipodi:docname="logo.svg"
   inkscape:version="1.1.2 (0a00cf5339, 2022-02-04, custom)"
   xmlns:inkscape="http://www.inkscape.org/namespaces/inkscape"
   xmlns:sodipodi="http://sodipodi.sourceforge.net/DTD/sodipodi-0.dtd"
   xmlns="http://www.w3.org/2000/svg"
   xmlns:svg="http://www.w3.org/2000/svg"><sodipodi:namedview
     id="namedview19"
     pagecolor="#ffffff"
     bordercolor="#666666"
     borderopacity="1.0"
     inkscape:pageshadow="2"
     inkscape:pageopacity="0.0"
     inkscape:pagecheckerboard="0"
     showgrid="false"
     inkscape:zoom="1"
     inkscape:cx="308"
     inkscape:cy="167.5"
     inkscape:window-width="1872"
     inkscape:window-height="995"
     inkscape:window-x="90"
     inkscape:window-y="20"
     inkscape:window-maximized="1"
     inkscape:current-layer="svg17" /><path
     width="512"
     height="512"
     x="0"
     y="0"
     style="fill:url(#_Linear1)"
     id="rect2"
     sodipodi:type="rect"
     d="M 100.34439,0 H 409.63736 A 102.36264,102.36264 45 0 1 512,102.36264 V 419.35175 A 92.648254,92.648254 135 0 1 419.35175,512 H 93.941196 A 93.941196,93.941196 45 0 1 0,418.0588 V 100.34439 A 100.34439,100.34439 135 0 1 100.34439,0 Z"
     inkscape:path-effect="#path-effect951" /><g
     id="g6"><circle
       cx="256"
       cy="256"
       r="200"
       style="fill:#fff;fill-opacity:.1"
       id="circle4" /></g><path
     d="M318.761,269.869c10.695,-6.153 10.695,-21.584 0,-27.737l-38.665,-22.246l39.873,-18.593l16.745,9.634l54.237,31.205c10.695,6.153 10.695,21.584 0,27.737l-54.219,31.193l-0.018,0.011l-18.071,10.397l-39.873,-18.593l39.991,-23.008Zm-121.761,24.599l-0,17.796c0.005,12.299 13.308,19.994 23.971,13.866l0.008,-0.004l19.658,-11.31l39.872,18.593l-41.577,23.921l-0.028,0.016l-53.925,31.025c-10.667,6.137 -23.979,-1.563 -23.979,-13.869l-0,-96.821l36,16.787Zm84.835,-115.114l-39.873,18.593l-20.983,-12.073l-0.013,-0.007c-10.664,-6.123 -23.966,1.575 -23.966,13.876l-0,19.17l-36,16.787l-0,-98.202c-0,-12.306 13.312,-20.006 23.979,-13.869l53.946,31.037l0.007,0.004l42.903,24.684Z"
     style="fill:#fff"
     id="path8" /><defs
     id="defs15"><inkscape:path-effect
       effect="fillet_chamfer"
       id="path-effect951"
       is_visible="true"
       lpeversion="1"
       satellites_param="F,0,0,1,0,100.34439,0,11 @ F,0,0,1,0,102.36264,0,11 @ F,0,0,1,0,92.648254,0,11 @ F,0,0,1,0,93.941196,0,11"
       unit="px"
       method="auto"
       mode="F"
       radius="46"
       chamfer_steps="4"
       flexible="false"
       use_knot_distance="true"
       apply_no_radius="false"
       apply_with_radius="true"
       only_selected="false"
       hide_knots="false" /><linearGradient
       id="_Linear1"
       x1="0"
       x2="0.9312498"
       y1="0"
       y2="0.0045352578"
       gradientTransform="matrix(512,512,-512,512,0,0)"
       gradientUnits="userSpaceOnUse"><stop
         offset="0"
         style="stop-color:#4a8;stop-opacity:1"
         id="stop10" /><stop
         offset="1"
         style="stop-color:#345;stop-opacity:1"
         id="stop12" /></linearGradient></defs></svg>
