<svg width="1334" height="1306" viewBox="0 0 1334 1306" fill="none" xmlns="http://www.w3.org/2000/svg">
<g clip-path="url(#clip0_438_26)">
<path d="M1333.23 -0.714844H0.234131V1305.29H1333.23V-0.714844Z" fill="url(#paint0_linear_438_26)"/>
<path d="M667.092 1240.5C998.184 1240.5 1266.59 977.535 1266.59 653.148C1266.59 328.762 998.184 65.7947 667.092 65.7947C335.999 65.7947 67.595 328.762 67.595 653.148C67.595 977.535 335.999 1240.5 667.092 1240.5Z" fill="#1C1B1B"/>
<path d="M636.006 908.772C632.882 908.772 630.078 906.89 628.949 904.036C610.357 857.022 459.032 474.365 432.412 407.052C431.51 404.771 431.814 402.201 433.226 400.183C434.637 398.165 436.972 396.959 439.469 396.959C455.383 396.959 484.144 396.959 495.991 396.959C499.183 396.959 502.032 398.92 503.112 401.862C509.191 418.42 529.966 475.025 554.769 542.846C593.118 647.702 641.095 779.366 659.276 831.281C660.231 834.425 663.182 836.581 666.531 836.58C669.879 836.579 672.829 834.421 673.781 831.276C704.498 745.455 818.097 443.735 833.891 401.808C834.987 398.894 837.821 396.959 840.991 396.959C852.435 396.959 879.758 396.959 895.183 396.959C897.685 396.959 900.024 398.17 901.434 400.194C902.844 402.218 903.142 404.794 902.229 407.076C875.297 474.47 722.36 857.16 703.617 904.061C702.481 906.902 699.684 908.772 696.57 908.772C683.481 908.772 649.116 908.772 636.006 908.772Z" fill="url(#paint1_linear_438_26)"/>
<path fill-rule="evenodd" clip-rule="evenodd" d="M682.499 676.8C679.63 682.422 673.764 685.974 667.347 685.974C660.931 685.974 655.065 682.422 652.196 676.8C621.021 615.714 550.236 477.012 521.706 421.107C519.081 415.962 519.361 409.853 522.448 404.959C525.534 400.067 530.987 397.088 536.858 397.088C596.621 397.088 738.073 397.088 797.836 397.088C803.708 397.088 809.16 400.067 812.247 404.959C815.333 409.853 815.614 415.962 812.988 421.107C784.458 477.012 713.673 615.714 682.499 676.8Z" fill="url(#paint2_linear_438_26)"/>
</g>
<defs>
<linearGradient id="paint0_linear_438_26" x1="666.734" y1="-0.58272" x2="666.734" y2="1305.29" gradientUnits="userSpaceOnUse">
<stop stop-color="#817E46"/>
<stop offset="1" stop-color="#6E0F5B"/>
</linearGradient>
<linearGradient id="paint1_linear_438_26" x1="669.932" y1="910.248" x2="656.047" y2="414.245" gradientUnits="userSpaceOnUse">
<stop stop-color="#FFF1CD"/>
<stop offset="0.51" stop-color="#FFF4D9"/>
<stop offset="1" stop-color="white"/>
</linearGradient>
<linearGradient id="paint2_linear_438_26" x1="665.11" y1="417.092" x2="666.962" y2="677.84" gradientUnits="userSpaceOnUse">
<stop stop-color="#D21DAD"/>
<stop offset="1" stop-color="#F1FF00"/>
</linearGradient>
<clipPath id="clip0_438_26">
<rect x="0.5" width="1333" height="1306" rx="653" fill="white"/>
</clipPath>
</defs>
</svg>
